# xmcd
#
# Track frame offsets:
#	150
#	17345
#	31162
#	45702
#	65480
#	83670
#	100172
#	117045
#	131420
#
# Disc length: 2001 seconds
#
# Revision: 1
# Processed by: cddbd v1.5.1PL0 Copyright (c) Steve Scherf et al.
# Submitted via: CDex 1.50Beta5
#
DISCID=6207cf09
DTITLE=門あさ美 - Anti Fleur
DYEAR=1900
DGENRE=Pop
TTITLE0=Anti Fleur
TTITLE1=KOROKU
TTITLE2=キリンと私
TTITLE3=太陽がいっぱい
TTITLE4=SORADAKI (空薫)
TTITLE5=みつばちのささやき
TTITLE6=魚になりたい
TTITLE7=道草
TTITLE8=ひまわり
EXTD=
EXTT0=
EXTT1=
EXTT2=
EXTT3=
EXTT4=
EXTT5=
EXTT6=
EXTT7=
EXTT8=
PLAYORDER=
